<svg width="48" height="15" viewBox="0 0 48 15" fill="none" xmlns="http://www.w3.org/2000/svg">
<path d="M47.489 8.53033C47.7819 8.23744 47.7819 7.76256 47.489 7.46967L42.716 2.6967C42.4231 2.40381 41.9482 2.40381 41.6553 2.6967C41.3624 2.98959 41.3624 3.46447 41.6553 3.75736L45.898 8L41.6553 12.2426C41.3624 12.5355 41.3624 13.0104 41.6553 13.3033C41.9482 13.5962 42.4231 13.5962 42.716 13.3033L47.489 8.53033ZM9.30566 8.75H46.9586V7.25H9.30566V8.75Z" fill="white"/>
<path d="M7.81947 14.5C3.99562 14.5 0.887963 11.3703 0.887963 7.5C0.887963 3.62967 3.99562 0.5 7.81947 0.5C11.6433 0.5 14.751 3.62967 14.751 7.5C14.751 11.3703 11.6433 14.5 7.81947 14.5Z" stroke="white"/>
</svg>
