<svg width="48" height="15" viewBox="0 0 48 15" fill="none" xmlns="http://www.w3.org/2000/svg">
<path d="M0.47002 8.53033C0.177128 8.23743 0.177128 7.76256 0.47002 7.46967L5.24299 2.6967C5.53589 2.4038 6.01076 2.4038 6.30365 2.6967C6.59655 2.98959 6.59655 3.46446 6.30365 3.75736L2.06101 8L6.30365 12.2426C6.59655 12.5355 6.59655 13.0104 6.30365 13.3033C6.01076 13.5962 5.53588 13.5962 5.24299 13.3033L0.47002 8.53033ZM38.6533 8.75L1.00035 8.75L1.00035 7.25L38.6533 7.25L38.6533 8.75Z" fill="#9E9E9E"/>
<path d="M40.1395 14.5C43.9634 14.5 47.071 11.3703 47.071 7.5C47.071 3.62967 43.9634 0.5 40.1395 0.5C36.3157 0.5 33.208 3.62967 33.208 7.5C33.208 11.3703 36.3157 14.5 40.1395 14.5Z" stroke="#9E9E9E"/>
</svg>
