<svg width="47" height="15" viewBox="0 0 47 15" fill="none" xmlns="http://www.w3.org/2000/svg">
<path d="M46.5304 8.53033C46.8233 8.23744 46.8233 7.76256 46.5304 7.46967L41.7574 2.6967C41.4645 2.40381 40.9896 2.40381 40.6968 2.6967C40.4039 2.98959 40.4039 3.46447 40.6968 3.75736L44.9394 8L40.6968 12.2426C40.4039 12.5355 40.4039 13.0104 40.6968 13.3033C40.9896 13.5962 41.4645 13.5962 41.7574 13.3033L46.5304 8.53033ZM8.80856 8.75L46.0001 8.75L46.0001 7.25L8.80856 7.25L8.80856 8.75Z" fill="#1D71B8"/>
<path d="M7.34045 14.5C3.57267 14.5 0.500027 11.3762 0.500027 7.5C0.500027 3.62381 3.57267 0.5 7.34045 0.5C11.1082 0.5 14.1809 3.62382 14.1809 7.5C14.1809 11.3762 11.1082 14.5 7.34045 14.5Z" stroke="#1D71B8"/>
</svg>
