<svg width="22" height="21" viewBox="0 0 22 21" fill="none" xmlns="http://www.w3.org/2000/svg">
<path d="M21.5 2.1975V5.25H0.5V2.1975C0.507712 1.60797 0.748913 1.04555 1.1707 0.633603C1.5925 0.221652 2.16045 -0.00620496 2.75 1.47377e-06H4.25V1.5C4.25 2.09674 4.48705 2.66903 4.90901 3.09099C5.33097 3.51295 5.90326 3.75 6.5 3.75C7.09674 3.75 7.66903 3.51295 8.09099 3.09099C8.51295 2.66903 8.75 2.09674 8.75 1.5V1.47377e-06H13.25V1.5C13.25 2.09674 13.4871 2.66903 13.909 3.09099C14.331 3.51295 14.9033 3.75 15.5 3.75C16.0967 3.75 16.669 3.51295 17.091 3.09099C17.5129 2.66903 17.75 2.09674 17.75 1.5V1.47377e-06H19.25C19.8396 -0.00620496 20.4075 0.221652 20.8293 0.633603C21.2511 1.04555 21.4923 1.60797 21.5 2.1975ZM0.5 6.75V18.8025C0.507712 19.392 0.748913 19.9545 1.1707 20.3664C1.5925 20.7784 2.16045 21.0062 2.75 21H19.25C19.8396 21.0062 20.4075 20.7784 20.8293 20.3664C21.2511 19.9545 21.4923 19.392 21.5 18.8025V6.75H0.5ZM7.25 17.25C7.24941 17.4487 7.1702 17.6392 7.02967 17.7797C6.88915 17.9202 6.69873 17.9994 6.5 18H5C4.80127 17.9994 4.61085 17.9202 4.47033 17.7797C4.3298 17.6392 4.25059 17.4487 4.25 17.25V15.75C4.25059 15.5513 4.3298 15.3609 4.47033 15.2203C4.61085 15.0798 4.80127 15.0006 5 15H6.5C6.69873 15.0006 6.88915 15.0798 7.02967 15.2203C7.1702 15.3609 7.24941 15.5513 7.25 15.75V17.25ZM7.25 12C7.24941 12.1987 7.1702 12.3892 7.02967 12.5297C6.88915 12.6702 6.69873 12.7494 6.5 12.75H5C4.80127 12.7494 4.61085 12.6702 4.47033 12.5297C4.3298 12.3892 4.25059 12.1987 4.25 12V10.5C4.25059 10.3013 4.3298 10.1109 4.47033 9.97033C4.61085 9.8298 4.80127 9.7506 5 9.75H6.5C6.69873 9.7506 6.88915 9.8298 7.02967 9.97033C7.1702 10.1109 7.24941 10.3013 7.25 10.5V12ZM12.5 17.25C12.4994 17.4487 12.4202 17.6392 12.2797 17.7797C12.1392 17.9202 11.9487 17.9994 11.75 18H10.25C10.0513 17.9994 9.86085 17.9202 9.72033 17.7797C9.5798 17.6392 9.50059 17.4487 9.5 17.25V15.75C9.50059 15.5513 9.5798 15.3609 9.72033 15.2203C9.86085 15.0798 10.0513 15.0006 10.25 15H11.75C11.9487 15.0006 12.1392 15.0798 12.2797 15.2203C12.4202 15.3609 12.4994 15.5513 12.5 15.75V17.25ZM12.5 12C12.4994 12.1987 12.4202 12.3892 12.2797 12.5297C12.1392 12.6702 11.9487 12.7494 11.75 12.75H10.25C10.0513 12.7494 9.86085 12.6702 9.72033 12.5297C9.5798 12.3892 9.50059 12.1987 9.5 12V10.5C9.50059 10.3013 9.5798 10.1109 9.72033 9.97033C9.86085 9.8298 10.0513 9.7506 10.25 9.75H11.75C11.9487 9.7506 12.1392 9.8298 12.2797 9.97033C12.4202 10.1109 12.4994 10.3013 12.5 10.5V12ZM17.75 12C17.7494 12.1987 17.6702 12.3892 17.5297 12.5297C17.3892 12.6702 17.1987 12.7494 17 12.75H15.5C15.3013 12.7494 15.1108 12.6702 14.9703 12.5297C14.8298 12.3892 14.7506 12.1987 14.75 12V10.5C14.7506 10.3013 14.8298 10.1109 14.9703 9.97033C15.1108 9.8298 15.3013 9.7506 15.5 9.75H17C17.1987 9.7506 17.3892 9.8298 17.5297 9.97033C17.6702 10.1109 17.7494 10.3013 17.75 10.5V12Z" fill="#1D71B8"/>
</svg>
