<svg width="18" height="11" viewBox="0 0 18 11" fill="none" xmlns="http://www.w3.org/2000/svg">
<path fill-rule="evenodd" clip-rule="evenodd" d="M16.0805 0.335938H15.0754C14.5203 0.335938 14.0703 0.783653 14.0703 1.33594V10.0026C14.0703 10.5549 14.5203 11.0026 15.0754 11.0026H16.0805C16.6356 11.0026 17.0856 10.5549 17.0856 10.0026V1.33594C17.0856 0.783653 16.6356 0.335938 16.0805 0.335938ZM10.3879 2.66797H11.393C11.9481 2.66797 12.3981 3.11568 12.3981 3.66797V10.0013C12.3981 10.5536 11.9481 11.0013 11.393 11.0013H10.3879C9.8328 11.0013 9.38281 10.5536 9.38281 10.0013V3.66797C9.38281 3.11568 9.8328 2.66797 10.3879 2.66797ZM6.70158 5.00391H5.69649C5.1414 5.00391 4.69141 5.45162 4.69141 6.00391V10.0039C4.69141 10.5562 5.1414 11.0039 5.69649 11.0039H6.70158C7.25667 11.0039 7.70666 10.5562 7.70666 10.0039V6.00391C7.70666 5.45162 7.25667 5.00391 6.70158 5.00391ZM2.01017 7.00391H1.00509C0.449992 7.00391 0 7.45162 0 8.00391V10.0039C0 10.5562 0.449992 11.0039 1.00509 11.0039H2.01017C2.56526 11.0039 3.01526 10.5562 3.01526 10.0039V8.00391C3.01526 7.45162 2.56526 7.00391 2.01017 7.00391Z" fill="#FAFAFA"/>
</svg>
