<svg width="40" height="40" viewBox="0 0 40 40" fill="none" xmlns="http://www.w3.org/2000/svg">
<path d="M19.9998 3.1522C20.5976 3.1522 21.0867 2.66307 21.0867 2.06525V1.52177C21.0867 0.923945 20.5976 0.434814 19.9998 0.434814C19.402 0.434814 18.9128 0.923945 18.9128 1.52177V2.06525C18.9128 2.66307 19.402 3.1522 19.9998 3.1522ZM19.9998 36.8478C19.402 36.8478 18.9128 37.337 18.9128 37.9348V38.4783C18.9128 39.0761 19.402 39.5652 19.9998 39.5652C20.5976 39.5652 21.0867 39.0761 21.0867 38.4783V37.9348C21.0867 37.337 20.5976 36.8478 19.9998 36.8478ZM2.065 18.9131H1.52153C0.923701 18.9131 0.43457 19.4022 0.43457 20C0.43457 20.5978 0.923701 21.087 1.52153 21.087H2.065C2.66283 21.087 3.15196 20.5978 3.15196 20C3.15196 19.4022 2.66283 18.9131 2.065 18.9131ZM38.478 18.9131H37.9346C37.3367 18.9131 36.8476 19.4022 36.8476 20C36.8476 20.5978 37.3367 21.087 37.9346 21.087H38.478C39.0759 21.087 39.565 20.5978 39.565 20C39.565 19.4022 39.0759 18.9131 38.478 18.9131ZM7.71718 6.19568C7.28239 5.7609 6.63022 5.7609 6.19544 6.19568C5.76065 6.63046 5.76065 7.28264 6.19544 7.71742L6.57587 8.09785C6.79326 8.31525 7.065 8.42394 7.33674 8.42394C7.60848 8.42394 7.88022 8.31525 8.09761 8.09785C8.53239 7.66307 8.53239 7.0109 8.09761 6.57612L7.71718 6.19568ZM6.57587 31.9022L6.19544 32.2826C5.76065 32.7174 5.76065 33.3696 6.19544 33.8044C6.41283 34.0218 6.68457 34.1305 6.95631 34.1305C7.22805 34.1305 7.49978 34.0218 7.71718 33.8044L8.09761 33.4239C8.53239 32.9891 8.53239 32.337 8.09761 31.9022C7.66283 31.4674 7.01065 31.4674 6.57587 31.9022ZM32.2824 6.19568L31.9019 6.57612C31.4672 7.0109 31.4672 7.66307 31.9019 8.09785C32.1193 8.31525 32.3911 8.42394 32.6628 8.42394C32.9346 8.42394 33.2063 8.31525 33.4237 8.09785L33.8041 7.71742C34.2389 7.28264 34.2389 6.63046 33.8041 6.19568C33.3693 5.7609 32.7172 5.7609 32.2824 6.19568ZM21.0867 19.5652V9.67394C21.0867 9.07611 20.5976 8.58698 19.9998 8.58698C19.402 8.58698 18.9128 9.07611 18.9128 9.67394V20C18.9128 20.2718 19.0215 20.5435 19.2389 20.7609L31.1411 32.6631C31.3585 32.8805 31.6302 32.9891 31.9019 32.9891C32.1737 32.9891 32.4454 32.8805 32.6628 32.6631C33.0976 32.2283 33.0976 31.5761 32.6628 31.1413L21.0867 19.5652Z" fill="white"/>
</svg>
