<svg width="60" height="60" viewBox="0 0 60 60" fill="none" xmlns="http://www.w3.org/2000/svg">
<g clip-path="url(#clip0_1_128)">
<path d="M37.3125 42.7312C35.9719 47.5781 32.3625 52.1531 27.4219 55.275C23.4 57.8156 19.0125 59.0531 14.9906 59.0531C9.825 59.0531 5.25 57.0187 2.76562 53.0906C-0.80625 47.4375 1.0125 39.2812 7.17188 33.2531C8.41875 32.025 9.84375 30.9 11.4187 29.8969C13.4625 28.6125 15.6188 27.6375 17.8219 27C19.0781 26.6344 20.3531 26.3719 21.6 26.2406C23.5594 26.0156 25.4719 26.0812 27.2812 26.4281C28.2938 26.6156 29.2969 26.9062 30.2625 27.3094C31.3031 27.7312 32.2875 28.2844 33.1781 28.9594C34.0312 29.6062 34.4062 30.6469 34.1531 31.6875C33.9094 32.7094 33.1031 33.4594 32.0625 33.6469C31.575 33.7406 31.1156 33.825 30.6469 33.9375C30.1687 34.0406 29.7 34.1531 29.25 34.2844C28.6969 34.4344 28.1531 34.5937 27.6187 34.7719C25.7156 35.4094 23.85 36.2437 22.0688 37.2562C17.7469 39.675 13.9031 43.1625 10.9312 47.3437L9.39375 49.5094C9.35625 49.5656 9.36562 49.6406 9.42188 49.6781H9.58125L15.4875 44.0719C19.7625 40.0125 25.0312 37.1719 30.7125 35.8594C31.35 35.7094 32.0156 35.5687 32.7469 35.4469C33.0281 35.4 33.4406 35.2969 33.825 35.2031C34.1156 35.1281 34.4062 35.0625 34.6125 35.025C35.3437 34.8656 36.1312 35.025 36.7406 35.4844C37.35 35.9344 37.7438 36.6281 37.8094 37.3875C37.9781 39.1031 37.8094 40.9125 37.2844 42.7594L37.3125 42.7312ZM54.9844 20.4187C50.4375 13.5656 43.3125 9.63748 36.8344 10.4062C36.0844 10.5 35.4 10.9031 34.9687 11.5219C34.5281 12.15 34.3781 12.9281 34.5562 13.6594C34.6031 13.875 34.6781 14.1656 34.7625 14.4656C34.8656 14.8406 34.9687 15.2437 35.0156 15.5062C36.2505 21.9695 39.3915 27.9152 44.0344 32.5781L49.7719 38.3531C49.7719 38.3531 49.8094 38.4187 49.8 38.5031C49.7531 38.5687 49.6781 38.5875 49.6125 38.5406L47.4094 37.0594C40.4062 32.3156 35.4844 25.4344 33.5625 17.6719L33.5062 17.4375C33.4125 17.0344 33.3187 16.6406 33.2344 16.2375C33.1448 15.7718 32.9285 15.3398 32.6093 14.9892C32.2901 14.6385 31.8803 14.3827 31.425 14.25C30.4875 13.9781 29.4844 14.2312 28.8656 14.8687C28.725 14.9906 28.6219 15.1219 28.5375 15.2437C26.7656 17.7094 25.875 20.8594 25.9031 24.3281C26.4844 24.3844 27.0656 24.4687 27.6281 24.5719C28.7531 24.7781 29.8875 25.1062 30.975 25.5562C32.1562 26.025 33.2906 26.6625 34.3125 27.4406C35.7656 28.5375 36.4031 30.3187 35.9813 32.1C35.8969 32.4375 35.7844 32.7656 35.6344 33.0656C36.4406 33.15 37.2281 33.45 37.8844 33.9281C38.925 34.6969 39.6 35.8781 39.7125 37.1719C39.9 39.1125 39.7125 41.1562 39.1219 43.2187C38.9625 43.7906 38.7656 44.3625 38.5594 44.925C41.2031 46.3312 43.9594 47.0531 46.5656 47.0531C49.0312 47.0531 51.375 46.4062 53.3625 45.0937C60.2531 40.5281 60.9844 29.4469 54.9937 20.3906L54.9844 20.4187ZM27.0187 14.1656C27.15 13.9969 27.3188 13.7625 27.5813 13.5281C28.0594 13.05 28.6688 12.7125 29.325 12.5062C25.7719 4.38748 18.6 -0.375022 11.7375 1.24685C3.68437 3.13123 -0.853125 13.2656 1.62187 23.8312C2.37187 27.0094 3.66563 29.9156 5.4 32.3906C5.55938 32.2312 5.7 32.0625 5.85938 31.9125C7.19062 30.6 8.72812 29.3906 10.4156 28.3125C12.553 26.953 14.8732 25.905 17.3062 25.2C17.7656 25.0687 18.2344 24.9656 18.6938 24.8531C18.2344 21.8812 17.3719 18.9937 16.125 16.2281L12.7312 8.77498C12.7312 8.77498 12.7312 8.69998 12.7875 8.67185C12.8438 8.64373 12.9562 8.69998 12.9656 8.69998L14.5125 10.8656C17.4844 15.0281 19.4719 19.7062 20.3719 24.5437C20.7094 24.4875 21.0562 24.4219 21.3937 24.3844C22.2188 24.2906 23.0531 24.2437 23.8687 24.2437H24.0469C24.0375 20.3906 25.0594 16.9125 27.0281 14.175L27.0187 14.1656Z" fill="white"/>
</g>
<defs>
<clipPath id="clip0_1_128">
<rect width="60" height="60" fill="white"/>
</clipPath>
</defs>
</svg>
