<svg width="60" height="60" viewBox="0 0 60 60" fill="none" xmlns="http://www.w3.org/2000/svg">
<path d="M58.2422 44.3555H1.75781C0.787031 44.3555 0 45.1425 0 46.1133C0 50.3201 3.41027 53.7305 7.61719 53.7305H52.3828C56.5896 53.7305 60 50.3202 60 46.1133C60 45.1425 59.213 44.3555 58.2422 44.3555ZM34.6875 11.8931V10.957C34.6875 8.36824 32.5888 6.26953 30 6.26953C27.4112 6.26953 25.3125 8.36824 25.3125 10.957V11.8931C26.8504 11.6617 28.416 11.543 30 11.543C31.584 11.543 33.1496 11.6617 34.6875 11.8931ZM49.473 23.1246C44.2716 17.9231 37.356 15.0586 30 15.0586C22.644 15.0586 15.7284 17.9231 10.527 23.1246C5.74207 27.9095 2.93672 34.1454 2.51777 40.8398H57.4821C57.0632 34.1454 54.2579 27.9095 49.473 23.1246Z" fill="white"/>
</svg>
