<svg width="22" height="22" viewBox="0 0 22 22" fill="none" xmlns="http://www.w3.org/2000/svg">
<path d="M8.88805 12.144H6.71005C6.35805 12.144 6.24805 12.012 6.24805 11.682V9.02C6.24805 8.668 6.38005 8.558 6.71005 8.558H8.88805V6.622C8.88805 5.742 9.04205 4.906 9.48205 4.136C9.94405 3.344 10.604 2.816 11.44 2.508C11.99 2.31 12.54 2.222 13.134 2.222H15.29C15.598 2.222 15.73 2.354 15.73 2.662V5.17C15.73 5.478 15.598 5.61 15.29 5.61C14.696 5.61 14.102 5.61 13.508 5.632C12.914 5.632 12.606 5.918 12.606 6.534C12.584 7.194 12.606 7.832 12.606 8.514H15.158C15.51 8.514 15.642 8.646 15.642 8.998V11.66C15.642 12.012 15.532 12.122 15.158 12.122H12.606V19.294C12.606 19.668 12.496 19.8 12.1 19.8H9.35005C9.02005 19.8 8.88805 19.668 8.88805 19.338V12.144Z" fill="#FAFAFA"/>
</svg>
