<svg width="30" height="30" viewBox="0 0 30 30" fill="none" xmlns="http://www.w3.org/2000/svg">
<g clip-path="url(#clip0_1_909)">
<path d="M28.125 6.49685V10.3125H1.875V6.49685C1.88464 5.75993 2.18614 5.05691 2.71338 4.54197C3.24062 4.02704 3.95056 3.74221 4.6875 3.74997H6.5625V5.62497C6.5625 6.37089 6.85882 7.08626 7.38626 7.61371C7.91371 8.14116 8.62908 8.43747 9.375 8.43747C10.1209 8.43747 10.8363 8.14116 11.3637 7.61371C11.8912 7.08626 12.1875 6.37089 12.1875 5.62497V3.74997H17.8125V5.62497C17.8125 6.37089 18.1088 7.08626 18.6363 7.61371C19.1637 8.14116 19.8791 8.43747 20.625 8.43747C21.3709 8.43747 22.0863 8.14116 22.6137 7.61371C23.1412 7.08626 23.4375 6.37089 23.4375 5.62497V3.74997H25.3125C26.0494 3.74221 26.7594 4.02704 27.2866 4.54197C27.8139 5.05691 28.1154 5.75993 28.125 6.49685ZM1.875 12.1875V27.2531C1.88464 27.99 2.18614 28.693 2.71338 29.208C3.24062 29.7229 3.95056 30.0077 4.6875 30H25.3125C26.0494 30.0077 26.7594 29.7229 27.2866 29.208C27.8139 28.693 28.1154 27.99 28.125 27.2531V12.1875H1.875ZM10.3125 25.3125C10.3118 25.5609 10.2127 25.7989 10.0371 25.9746C9.86144 26.1502 9.62341 26.2492 9.375 26.25H7.5C7.25159 26.2492 7.01356 26.1502 6.83791 25.9746C6.66225 25.7989 6.56324 25.5609 6.5625 25.3125V23.4375C6.56324 23.1891 6.66225 22.951 6.83791 22.7754C7.01356 22.5997 7.25159 22.5007 7.5 22.5H9.375C9.62341 22.5007 9.86144 22.5997 10.0371 22.7754C10.2127 22.951 10.3118 23.1891 10.3125 23.4375V25.3125ZM10.3125 18.75C10.3118 18.9984 10.2127 19.2364 10.0371 19.4121C9.86144 19.5877 9.62341 19.6867 9.375 19.6875H7.5C7.25159 19.6867 7.01356 19.5877 6.83791 19.4121C6.66225 19.2364 6.56324 18.9984 6.5625 18.75V16.875C6.56324 16.6266 6.66225 16.3885 6.83791 16.2129C7.01356 16.0372 7.25159 15.9382 7.5 15.9375H9.375C9.62341 15.9382 9.86144 16.0372 10.0371 16.2129C10.2127 16.3885 10.3118 16.6266 10.3125 16.875V18.75ZM16.875 25.3125C16.8743 25.5609 16.7752 25.7989 16.5996 25.9746C16.4239 26.1502 16.1859 26.2492 15.9375 26.25H14.0625C13.8141 26.2492 13.5761 26.1502 13.4004 25.9746C13.2248 25.7989 13.1257 25.5609 13.125 25.3125V23.4375C13.1257 23.1891 13.2248 22.951 13.4004 22.7754C13.5761 22.5997 13.8141 22.5007 14.0625 22.5H15.9375C16.1859 22.5007 16.4239 22.5997 16.5996 22.7754C16.7752 22.951 16.8743 23.1891 16.875 23.4375V25.3125ZM16.875 18.75C16.8743 18.9984 16.7752 19.2364 16.5996 19.4121C16.4239 19.5877 16.1859 19.6867 15.9375 19.6875H14.0625C13.8141 19.6867 13.5761 19.5877 13.4004 19.4121C13.2248 19.2364 13.1257 18.9984 13.125 18.75V16.875C13.1257 16.6266 13.2248 16.3885 13.4004 16.2129C13.5761 16.0372 13.8141 15.9382 14.0625 15.9375H15.9375C16.1859 15.9382 16.4239 16.0372 16.5996 16.2129C16.7752 16.3885 16.8743 16.6266 16.875 16.875V18.75ZM23.4375 18.75C23.4368 18.9984 23.3377 19.2364 23.1621 19.4121C22.9864 19.5877 22.7484 19.6867 22.5 19.6875H20.625C20.3766 19.6867 20.1386 19.5877 19.9629 19.4121C19.7873 19.2364 19.6882 18.9984 19.6875 18.75V16.875C19.6882 16.6266 19.7873 16.3885 19.9629 16.2129C20.1386 16.0372 20.3766 15.9382 20.625 15.9375H22.5C22.7484 15.9382 22.9864 16.0372 23.1621 16.2129C23.3377 16.3885 23.4368 16.6266 23.4375 16.875V18.75Z" fill="white"/>
<path d="M10.3125 3.75V5.625C10.3125 5.87364 10.2137 6.1121 10.0379 6.28791C9.8621 6.46373 9.62364 6.5625 9.375 6.5625C9.12636 6.5625 8.8879 6.46373 8.71209 6.28791C8.53627 6.1121 8.4375 5.87364 8.4375 5.625V3.75C8.4375 3.50136 8.53627 3.2629 8.71209 3.08709C8.8879 2.91127 9.12636 2.8125 9.375 2.8125C9.62364 2.8125 9.8621 2.91127 10.0379 3.08709C10.2137 3.2629 10.3125 3.50136 10.3125 3.75ZM21.5625 3.75V5.625C21.5625 5.87364 21.4637 6.1121 21.2879 6.28791C21.1121 6.46373 20.8736 6.5625 20.625 6.5625C20.3764 6.5625 20.1379 6.46373 19.9621 6.28791C19.7863 6.1121 19.6875 5.87364 19.6875 5.625V3.75C19.6875 3.50136 19.7863 3.2629 19.9621 3.08709C20.1379 2.91127 20.3764 2.8125 20.625 2.8125C20.8736 2.8125 21.1121 2.91127 21.2879 3.08709C21.4637 3.2629 21.5625 3.50136 21.5625 3.75Z" fill="white"/>
</g>
<defs>
<clipPath id="clip0_1_909">
<rect width="30" height="30" fill="white"/>
</clipPath>
</defs>
</svg>
