<svg width="30" height="30" viewBox="0 0 30 30" fill="none" xmlns="http://www.w3.org/2000/svg">
<path d="M15 1.25C12.2805 1.25 9.62209 2.05642 7.36092 3.56729C5.09974 5.07816 3.33737 7.22562 2.29666 9.7381C1.25596 12.2506 0.983662 15.0153 1.51421 17.6825C2.04476 20.3497 3.35432 22.7997 5.27729 24.7227C7.20026 26.6457 9.65028 27.9553 12.3175 28.4858C14.9848 29.0163 17.7494 28.744 20.2619 27.7033C22.7744 26.6626 24.9218 24.9003 26.4327 22.6391C27.9436 20.3779 28.75 17.7195 28.75 15C28.7457 11.3546 27.2957 7.85973 24.718 5.28203C22.1403 2.70434 18.6454 1.2543 15 1.25ZM19.6338 19.6338C19.3993 19.8681 19.0815 19.9997 18.75 19.9997C18.4186 19.9997 18.1007 19.8681 17.8663 19.6338L14.1163 15.8838C13.8818 15.6494 13.7501 15.3315 13.75 15V7.5C13.75 7.16848 13.8817 6.85054 14.1161 6.61612C14.3505 6.3817 14.6685 6.25 15 6.25C15.3315 6.25 15.6495 6.3817 15.8839 6.61612C16.1183 6.85054 16.25 7.16848 16.25 7.5V14.4825L19.6338 17.8663C19.8681 18.1007 19.9997 18.4185 19.9997 18.75C19.9997 19.0815 19.8681 19.3993 19.6338 19.6338Z" fill="white"/>
</svg>
