<svg width="20" height="16" viewBox="0 0 20 16" fill="none" xmlns="http://www.w3.org/2000/svg">
<path d="M19.5335 2.08813C18.8244 2.39915 18.0689 2.60531 17.2812 2.70541C18.0915 2.22159 18.71 1.46131 19.0008 0.544917C18.2453 0.995367 17.4111 1.31354 16.5221 1.4911C15.8047 0.727242 14.7823 0.25415 13.6669 0.25415C11.5028 0.25415 9.7606 2.01067 9.7606 4.16401C9.7606 4.47384 9.78682 4.77176 9.85117 5.05538C6.6015 4.89688 3.72601 3.33938 1.79431 0.966767C1.45707 1.55188 1.25926 2.22159 1.25926 2.94255C1.25926 4.29628 1.95638 5.49629 2.99551 6.19103C2.3675 6.17912 1.75141 5.99679 1.22946 5.7096V5.7525C1.22946 7.65202 2.58439 9.22978 4.36116 9.59324C4.04299 9.68023 3.69621 9.72194 3.33633 9.72194C3.08608 9.72194 2.83345 9.70764 2.5963 9.65521C3.10276 11.2032 4.53991 12.3412 6.24876 12.3782C4.91886 13.4185 3.23027 14.0453 1.40226 14.0453C1.0817 14.0453 0.774247 14.031 0.466797 13.9917C2.19829 15.1083 4.25034 15.7458 6.46326 15.7458C13.6562 15.7458 17.5887 9.78748 17.5887 4.6228C17.5887 4.45001 17.5827 4.28318 17.5744 4.11753C18.3501 3.56698 19.002 2.87939 19.5335 2.08813Z" fill="#FAFAFA"/>
</svg>
