<svg width="22" height="22" viewBox="0 0 22 22" fill="none" xmlns="http://www.w3.org/2000/svg">
<path d="M8.88805 12.1439H6.71005C6.35805 12.1439 6.24805 12.0119 6.24805 11.6819V9.01992C6.24805 8.66792 6.38005 8.55792 6.71005 8.55792H8.88805V6.62192C8.88805 5.74192 9.04205 4.90592 9.48205 4.13592C9.94405 3.34392 10.604 2.81592 11.44 2.50792C11.99 2.30992 12.54 2.22192 13.134 2.22192H15.29C15.598 2.22192 15.73 2.35392 15.73 2.66192V5.16992C15.73 5.47792 15.598 5.60992 15.29 5.60992C14.696 5.60992 14.102 5.60992 13.508 5.63192C12.914 5.63192 12.606 5.91792 12.606 6.53392C12.584 7.19392 12.606 7.83192 12.606 8.51392H15.158C15.51 8.51392 15.642 8.64592 15.642 8.99792V11.6599C15.642 12.0119 15.532 12.1219 15.158 12.1219H12.606V19.2939C12.606 19.6679 12.496 19.7999 12.1 19.7999H9.35005C9.02005 19.7999 8.88805 19.6679 8.88805 19.3379V12.1439Z" fill="#FAFAFA"/>
</svg>
