<svg width="20" height="20" viewBox="0 0 20 20" fill="none" xmlns="http://www.w3.org/2000/svg">
<path d="M10 6.6377C8.1447 6.6377 6.6377 8.1447 6.6377 10C6.6377 11.8554 8.1447 13.366 10 13.366C11.8554 13.366 13.366 11.8554 13.366 10C13.366 8.1447 11.8554 6.6377 10 6.6377Z" fill="#FAFAFA"/>
<path d="M15.0743 0.833252H4.92501C2.67001 0.833252 0.833008 2.67025 0.833008 4.92525V15.0746C0.833008 17.3333 2.67001 19.1666 4.92501 19.1666H15.0743C17.333 19.1666 19.1663 17.3333 19.1663 15.0746V4.92525C19.1663 2.67025 17.333 0.833252 15.0743 0.833252ZM9.99968 15.9399C6.72534 15.9399 4.05967 13.2743 4.05967 9.99992C4.05967 6.72559 6.72534 4.06359 9.99968 4.06359C13.274 4.06359 15.9397 6.72559 15.9397 9.99992C15.9397 13.2743 13.274 15.9399 9.99968 15.9399ZM16.0643 5.14159C15.3713 5.14159 14.8067 4.58059 14.8067 3.88759C14.8067 3.19459 15.3713 2.62992 16.0643 2.62992C16.7573 2.62992 17.322 3.19459 17.322 3.88759C17.322 4.58059 16.7573 5.14159 16.0643 5.14159Z" fill="#FAFAFA"/>
</svg>
