<svg width="15" height="48" viewBox="0 0 15 48" fill="none" xmlns="http://www.w3.org/2000/svg">
<path d="M8.53033 47.5303C8.23744 47.8232 7.76256 47.8232 7.46967 47.5303L2.6967 42.7574C2.4038 42.4645 2.4038 41.9896 2.6967 41.6967C2.98959 41.4038 3.46446 41.4038 3.75736 41.6967L8 45.9393L12.2426 41.6967C12.5355 41.4038 13.0104 41.4038 13.3033 41.6967C13.5962 41.9896 13.5962 42.4645 13.3033 42.7574L8.53033 47.5303ZM8.75 9L8.75 47L7.25 47L7.25 9L8.75 9Z" fill="#9E9E9E"/>
<circle cx="7.5" cy="7.5" r="7" transform="matrix(1 0 0 -1 0 15)" stroke="#9E9E9E"/>
</svg>
