<svg width="60" height="60" viewBox="0 0 60 60" fill="none" xmlns="http://www.w3.org/2000/svg">
<path d="M50.4546 49.0909H9.55611C8.80377 49.0909 8.19384 49.7009 8.19243 50.4532L8.18707 54.4296C8.18579 55.917 8.76363 57.3153 9.81435 58.3673C10.8664 59.4208 12.2633 60 13.7508 60H46.2544C49.3226 60 51.8182 57.5044 51.8182 54.4362V50.4545C51.8183 50.2754 51.7831 50.098 51.7146 49.9326C51.6461 49.7671 51.5457 49.6167 51.419 49.4901C51.2924 49.3635 51.142 49.263 50.9766 49.1945C50.8111 49.126 50.6337 49.0908 50.4546 49.0909ZM45 5.45459C44.1651 5.45459 43.3074 5.53846 42.3992 5.70759C39.2791 2.06936 34.8074 0 30.0001 0C20.9767 0 13.6364 7.34025 13.6364 16.3636C13.6364 17.116 13.0252 17.7273 12.2727 17.7273C11.5204 17.7273 10.9091 17.1161 10.9091 16.3636C10.9091 13.4113 11.5883 10.5548 12.9279 7.87424C13.0446 7.64092 13.0919 7.37905 13.0643 7.11966C13.0366 6.86028 12.9352 6.61424 12.7721 6.41071C12.6082 6.20818 12.3901 6.05643 12.1432 5.9732C11.8964 5.88997 11.6309 5.87867 11.3778 5.94064C4.67821 7.61191 0 13.5804 0 20.4546C0 26.1221 3.19602 31.2744 8.21378 33.8219L8.19908 44.9986C8.19908 45.3595 8.34163 45.7071 8.59731 45.9641C8.85427 46.2198 9.20059 46.3636 9.56276 46.3636H50.4546C50.6337 46.3637 50.8111 46.3285 50.9766 46.26C51.1421 46.1915 51.2925 46.0911 51.4192 45.9644C51.5458 45.8378 51.6462 45.6874 51.7147 45.5219C51.7832 45.3564 51.8184 45.179 51.8183 44.9999V33.8018C56.8174 31.2477 60.0001 26.1033 60.0001 20.4544C60 12.1835 53.2711 5.45459 45 5.45459ZM19.9565 37.8729C19.6766 38.1019 19.3173 38.2106 18.9573 38.1752C18.5974 38.1398 18.2662 37.9631 18.0363 37.6838C17.5862 37.1338 13.6364 32.2173 13.6364 28.6364C13.6363 28.4573 13.6715 28.2799 13.74 28.1144C13.8085 27.9489 13.9089 27.7985 14.0356 27.6719C14.1622 27.5452 14.3126 27.4448 14.4781 27.3763C14.6436 27.3078 14.821 27.2726 15.0001 27.2727C15.1792 27.2726 15.3566 27.3078 15.5221 27.3763C15.6876 27.4448 15.838 27.5452 15.9646 27.6719C16.0913 27.7985 16.1917 27.9489 16.2602 28.1144C16.3287 28.2799 16.3639 28.4573 16.3638 28.6364C16.3638 30.61 18.6836 34.1709 20.1457 35.9526C20.6223 36.5359 20.5384 37.3948 19.9565 37.8729ZM31.3636 36.8182C31.3636 37.572 30.7537 38.1819 29.9999 38.1819C29.2462 38.1819 28.6364 37.572 28.6364 36.8182V28.6364C28.6364 27.8826 29.2463 27.2727 30.0001 27.2727C30.7538 27.2727 31.3637 27.8826 31.3637 28.6364V36.8182H31.3636ZM41.9638 37.6838C41.8358 37.8396 41.6748 37.9651 41.4924 38.0513C41.31 38.1374 41.1108 38.182 40.9091 38.1819C40.6042 38.1819 40.2979 38.0806 40.0449 37.8729C39.463 37.3948 39.3777 36.5359 39.8544 35.954C41.3167 34.1682 43.6364 30.6033 43.6364 28.6364C43.6362 28.4573 43.6714 28.2799 43.7399 28.1144C43.8084 27.9489 43.9088 27.7985 44.0355 27.6719C44.1622 27.5452 44.3125 27.4448 44.478 27.3763C44.6435 27.3078 44.8209 27.2726 45 27.2727C45.1791 27.2726 45.3565 27.3078 45.522 27.3763C45.6875 27.4448 45.8379 27.5452 45.9646 27.6719C46.0912 27.7985 46.1917 27.9489 46.2601 28.1144C46.3286 28.2799 46.3638 28.4573 46.3637 28.6364C46.3637 32.2172 42.4139 37.1338 41.9638 37.6838Z" fill="white"/>
</svg>
