<svg width="22" height="22" viewBox="0 0 22 22" fill="none" xmlns="http://www.w3.org/2000/svg">
<path d="M11 7.63766C9.1447 7.63766 7.6377 9.14467 7.6377 11C7.6377 12.8553 9.1447 14.366 11 14.366C12.8554 14.366 14.366 12.8553 14.366 11C14.366 9.14467 12.8554 7.63766 11 7.63766Z" fill="#FAFAFA"/>
<path d="M16.0743 1.83333H5.92501C3.67001 1.83333 1.83301 3.67033 1.83301 5.92533V16.0747C1.83301 18.3333 3.67001 20.1667 5.92501 20.1667H16.0743C18.333 20.1667 20.1663 18.3333 20.1663 16.0747V5.92533C20.1663 3.67033 18.333 1.83333 16.0743 1.83333ZM10.9997 16.94C7.72534 16.94 5.05967 14.2743 5.05967 11C5.05967 7.72567 7.72534 5.06367 10.9997 5.06367C14.274 5.06367 16.9397 7.72567 16.9397 11C16.9397 14.2743 14.274 16.94 10.9997 16.94ZM17.0643 6.14167C16.3713 6.14167 15.8067 5.58067 15.8067 4.88767C15.8067 4.19467 16.3713 3.63 17.0643 3.63C17.7573 3.63 18.322 4.19467 18.322 4.88767C18.322 5.58067 17.7573 6.14167 17.0643 6.14167Z" fill="#FAFAFA"/>
</svg>
