<svg width="102" height="102" viewBox="0 0 102 102" fill="none" xmlns="http://www.w3.org/2000/svg">
<circle cx="51" cy="51" r="50" stroke="#1D71B8" stroke-width="2"/>
<path d="M63.9916 47.7744L43.3666 36.1381C42.693 35.7532 41.9295 35.5535 41.1537 35.5595C40.378 35.5654 39.6176 35.7767 38.95 36.1719C38.2996 36.5439 37.7592 37.0814 37.3838 37.7298C37.0084 38.3782 36.8113 39.1145 36.8125 39.8637V63.1363C36.8113 63.8855 37.0084 64.6218 37.3838 65.2702C37.7592 65.9186 38.2996 66.4561 38.95 66.8281C39.6177 67.2231 40.378 67.4343 41.1537 67.4402C41.9295 67.4462 42.6929 67.2466 43.3666 66.8619L63.9916 55.2256C64.6568 54.8571 65.2112 54.3173 65.5972 53.6621C65.9832 53.007 66.1868 52.2604 66.1868 51.5C66.1868 50.7396 65.9832 49.993 65.5972 49.3379C65.2112 48.6827 64.6568 48.1429 63.9916 47.7744Z" fill="white"/>
</svg>
