<svg width="18" height="18" viewBox="0 0 18 18" fill="none" xmlns="http://www.w3.org/2000/svg">
<path fill-rule="evenodd" clip-rule="evenodd" d="M2 4.64286C2 4.47236 2.08194 4.30885 2.22781 4.18829C2.37367 4.06773 2.5715 4 2.77778 4H15.2222C15.4285 4 15.6263 4.06773 15.7722 4.18829C15.9181 4.30885 16 4.47236 16 4.64286C16 4.81335 15.9181 4.97687 15.7722 5.09743C15.6263 5.21798 15.4285 5.28571 15.2222 5.28571H2.77778C2.5715 5.28571 2.37367 5.21798 2.22781 5.09743C2.08194 4.97687 2 4.81335 2 4.64286ZM2 8.5C2 8.3295 2.08194 8.16599 2.22781 8.04543C2.37367 7.92487 2.5715 7.85714 2.77778 7.85714H10.5556C10.7618 7.85714 10.9597 7.92487 11.1055 8.04543C11.2514 8.16599 11.3333 8.3295 11.3333 8.5C11.3333 8.6705 11.2514 8.83401 11.1055 8.95457C10.9597 9.07513 10.7618 9.14286 10.5556 9.14286H2.77778C2.5715 9.14286 2.37367 9.07513 2.22781 8.95457C2.08194 8.83401 2 8.6705 2 8.5ZM2 12.3571C2 12.1866 2.08194 12.0231 2.22781 11.9026C2.37367 11.782 2.5715 11.7143 2.77778 11.7143H6.66667C6.87295 11.7143 7.07078 11.782 7.21664 11.9026C7.3625 12.0231 7.44444 12.1866 7.44444 12.3571C7.44444 12.5276 7.3625 12.6912 7.21664 12.8117C7.07078 12.9323 6.87295 13 6.66667 13H2.77778C2.5715 13 2.37367 12.9323 2.22781 12.8117C2.08194 12.6912 2 12.5276 2 12.3571Z" fill="white"/>
</svg>
