<svg width="22" height="22" viewBox="0 0 22 22" fill="none" xmlns="http://www.w3.org/2000/svg">
<path d="M20.5335 5.08814C19.8244 5.39917 19.0689 5.60532 18.2812 5.70542C19.0915 5.22161 19.71 4.46132 20.0008 3.54493C19.2453 3.99538 18.4111 4.31356 17.5221 4.49112C16.8047 3.72726 15.7823 3.25417 14.6669 3.25417C12.5028 3.25417 10.7606 5.01068 10.7606 7.16402C10.7606 7.47386 10.7868 7.77177 10.8512 8.05539C7.6015 7.8969 4.72601 6.33939 2.79431 3.96678C2.45707 4.55189 2.25926 5.22161 2.25926 5.94257C2.25926 7.2963 2.95638 8.49631 3.99551 9.19105C3.3675 9.17913 2.75141 8.99681 2.22946 8.70962V8.75252C2.22946 10.652 3.58439 12.2298 5.36116 12.5933C5.04299 12.6802 4.69621 12.722 4.33633 12.722C4.08608 12.722 3.83345 12.7077 3.5963 12.6552C4.10276 14.2032 5.53991 15.3412 7.24876 15.3782C5.91886 16.4185 4.23027 17.0453 2.40226 17.0453C2.0817 17.0453 1.77425 17.031 1.4668 16.9917C3.19829 18.1083 5.25034 18.7458 7.46326 18.7458C14.6562 18.7458 18.5887 12.7875 18.5887 7.62282C18.5887 7.45002 18.5827 7.28319 18.5744 7.11755C19.3501 6.567 20.002 5.87941 20.5335 5.08814Z" fill="#FAFAFA"/>
</svg>
