<svg width="50" height="40" viewBox="0 0 50 40" fill="none" xmlns="http://www.w3.org/2000/svg">
<path d="M30.957 20H44.8438V20.0195C44.8438 23.8379 42.9492 27.373 39.7754 29.4922L31.0645 35.3027C29.9219 36.0645 29.6191 37.5977 30.3809 38.7402C30.8594 39.4531 31.6406 39.8438 32.4512 39.8438C32.9199 39.8438 33.3984 39.707 33.8281 39.4238L42.5391 33.6133C47.0801 30.5859 49.8047 25.498 49.8047 20.0195V1.15234C49.8047 0.605469 49.3652 0.156246 48.8086 0.156246H30.957C30.4102 0.156246 29.9609 0.595703 29.9609 1.15234V19.0039C29.9609 19.5605 30.4004 20 30.957 20ZM1.19141 20H15.0781V20.0195C15.0781 23.8379 13.1836 27.373 10.0098 29.4922L1.29883 35.3027C0.15625 36.0645 -0.146484 37.5977 0.615234 38.7402C1.09375 39.4531 1.875 39.8438 2.68555 39.8438C3.1543 39.8438 3.63281 39.707 4.0625 39.4238L12.7734 33.6133C17.334 30.5762 20.0488 25.498 20.0488 20.0195V1.15234C20.0488 0.605469 19.6094 0.156246 19.0527 0.156246H1.19141C0.644531 0.156246 0.195312 0.595703 0.195312 1.15234V19.0039C0.195312 19.5605 0.644531 20 1.19141 20Z" fill="white"/>
</svg>
