<svg width="16" height="11" viewBox="0 0 16 11" fill="none" xmlns="http://www.w3.org/2000/svg">
<path fill-rule="evenodd" clip-rule="evenodd" d="M7.81543 2.28448C10.0515 2.28457 12.202 3.13869 13.8226 4.67028C13.9446 4.78852 14.1397 4.78703 14.2598 4.66693L15.4264 3.4966C15.4872 3.43569 15.5211 3.35318 15.5206 3.26733C15.5201 3.18148 15.4852 3.09937 15.4237 3.03917C11.1702 -1.01306 4.45996 -1.01306 0.206523 3.03917C0.144909 3.09933 0.10995 3.18141 0.109382 3.26726C0.108814 3.35311 0.142683 3.43565 0.203496 3.4966L1.37035 4.66693C1.49046 4.78721 1.68566 4.7887 1.80762 4.67028C3.42838 3.13859 5.57917 2.28447 7.81543 2.28448ZM7.81543 6.0908C9.04399 6.09072 10.2287 6.54467 11.1394 7.36445C11.2626 7.48079 11.4566 7.47827 11.5767 7.35876L12.7418 6.18844C12.8032 6.12705 12.8372 6.04377 12.8364 5.95724C12.8355 5.8707 12.7997 5.78813 12.7371 5.72799C9.96393 3.16359 5.66929 3.16359 2.89609 5.72799C2.83345 5.78813 2.79771 5.87074 2.79689 5.9573C2.79607 6.04387 2.83023 6.12714 2.89172 6.18844L4.05655 7.35876C4.17662 7.47827 4.37065 7.48079 4.49383 7.36445C5.4039 6.54522 6.58768 6.0913 7.81543 6.0908ZM10.1527 8.65413C10.1545 8.74091 10.1201 8.82458 10.0578 8.88537L8.04233 10.9074C7.98325 10.9668 7.9027 11.0002 7.81865 11.0002C7.7346 11.0002 7.65405 10.9668 7.59496 10.9074L5.57913 8.88537C5.51686 8.82453 5.4826 8.74084 5.48445 8.65406C5.48629 8.56728 5.52408 8.48511 5.58888 8.42694C6.87606 7.34467 8.76124 7.34467 10.0484 8.42694C10.1132 8.48515 10.1509 8.56736 10.1527 8.65413Z" fill="#FAFAFA"/>
</svg>
